<svg xmlns="http://www.w3.org/2000/svg" width="21.058" height="18.784" viewBox="0 0 21.058 18.784"><g transform="translate(0.133 0.139)"><g transform="translate(0.361 0.36)"><path d="M14.709,11.733a3.223,3.223,0,0,1-2.167-1.008,3.166,3.166,0,0,1-2.3.994h-.009a3.146,3.146,0,0,1-2.279-.989,3.045,3.045,0,0,1-2.207,1H5.741A3.238,3.238,0,0,1,2.53,9.08l0-.016a9.025,9.025,0,0,1,.544-3.426,16.923,16.923,0,0,0,.443-1.733l0-.012A1.6,1.6,0,0,1,5.3,2.507H19.758c1.476-.12,1.77,1.195,2,2.25l.031.14a12.678,12.678,0,0,0,.339,1.334,6.538,6.538,0,0,1,.4,2.824,3.2,3.2,0,0,1-2.374,2.555,3.037,3.037,0,0,1-3.081-.9,3.934,3.934,0,0,1-2.371,1.021m-8.965-.346h0a2.485,2.485,0,0,0,1.3-.368,2.879,2.879,0,0,1-2.525.1l-.1-.046a3.059,3.059,0,0,0,1.324.31M13.85,11.2a2.246,2.246,0,0,0,1.846-.034,2.57,2.57,0,0,1-1.089.2,2.327,2.327,0,0,1-.757-.168m-5.121-.274a2.765,2.765,0,0,0,1.507.449h.008a2.779,2.779,0,0,0,1.537-.461,2.834,2.834,0,0,1-1.539.457h-.005a2.8,2.8,0,0,1-1.507-.444m12.542-.28a3.089,3.089,0,0,1-1.479.69q-.083.014-.166.023a2.991,2.991,0,0,0,.447-.082,2.934,2.934,0,0,0,1.2-.631M17.26,9.656l.1.2A2.187,2.187,0,0,0,19.736,11a2.527,2.527,0,0,0,2.125-2.072A6.277,6.277,0,0,0,21.468,6.4a12.543,12.543,0,0,1-.343-1.348c-.037-.135-.069-.278-.1-.417-.219-.954-.412-1.527-1.243-1.447H5.3c-.7,0-.949.195-1.119.867q-.122.483-.245.965C3.691,6,3.435,7,3.206,8a2.5,2.5,0,0,0,1.451,2.8,2.665,2.665,0,0,0,3.2-.922L8,9.7l.133.187a2.582,2.582,0,0,0,2.1,1.136h0a2.626,2.626,0,0,0,2.133-1.151L12.5,9.7l.143.159a2.941,2.941,0,0,0,1.982,1.163,3.61,3.61,0,0,0,2.471-1.217Zm-.131.582.105.128a2.858,2.858,0,0,0,.55.515,2.506,2.506,0,0,1-.617-.677l-.038.034M2.868,9.021q.03.15.073.293a3.026,3.026,0,0,1-.082-.393c0,.033.005.067.009.1M22.089,7.384A4.5,4.5,0,0,1,22.2,8.966a4.283,4.283,0,0,0-.113-1.581M3.425,5.651,3.4,5.735a14.623,14.623,0,0,0-.5,2.045c.165-.714.342-1.427.52-2.129m18.069-.492c.059.29.14.585.228.89-.086-.3-.167-.6-.228-.89m-.243-1.035c.04.148.075.3.107.439s.064.277.1.407V4.965l-.03-.133c-.057-.255-.113-.492-.175-.707m-17.4-.153v0A1.273,1.273,0,0,1,5.3,2.85a1.262,1.262,0,0,0-1.45,1.121M20,2.844a1.109,1.109,0,0,1,.871.428A1.067,1.067,0,0,0,20,2.844m-8.007.006h0" transform="translate(-2.503 -2.5)" fill="#0a2440" stroke="rgba(10,36,64,0.22)" stroke-linejoin="bevel" stroke-width="1"/><path d="M27.122,90.721c-.492,0-1.061-.012-1.722-.025-.539-.011-1.14-.023-1.808-.031l-.17,0V85.837H19.243v4.851h-.96c-1.18,0-3.368,0-3.747,0a2.067,2.067,0,0,1-1.61-.447,1.387,1.387,0,0,1-.466-1.083c.014-.829,0-1.671-.009-2.485-.018-1.377-.038-2.8.064-4.192l.016-.223.211.073c1.848.639,2.561.3,3.133.026a1.7,1.7,0,0,1,1.243-.217l.023.005.021.011a3.687,3.687,0,0,0,3.76,0,.748.748,0,0,1,.8,0,3.7,3.7,0,0,0,3.795,0,.79.79,0,0,1,.711-.023,4.074,4.074,0,0,0,3.744.173l.236-.08-.009.249c-.071,1.894-.023,3.319.015,4.464.058,1.746.09,2.708-.433,3.237-.438.444-1.212.544-2.657.544m-2.37-.381.655.013c.948.019,1.711.035,2.318.017-.41.007-.9,0-1.483-.011-.449-.007-.939-.015-1.49-.019m-11.939-.994a1.02,1.02,0,0,0,.342.642,1.743,1.743,0,0,0,1.332.363,2.007,2.007,0,0,1-1.38-.436,1.17,1.17,0,0,1-.293-.569m6.087,1V85.493h0Zm-.3,0h0Zm11.163-.786a1.069,1.069,0,0,1-.235.374,1.043,1.043,0,0,1-.246.186.952.952,0,0,0,.257-.182.989.989,0,0,0,.225-.378m-16.608-6.4c.069,1.794.011,3.14-.033,4.135-.057,1.32-.089,2.046.234,2.379.372.383,1.336.37,3.257.343.569-.008,1.208-.017,1.947-.018V85.15h5.553V90c.823,0,1.52.01,2.139.02,1.779.029,2.671.044,3.031-.324.328-.335.3-1.1.249-2.479-.037-.982-.086-2.309-.027-4.057a4.29,4.29,0,0,1-3.59-.411.219.219,0,0,0-.07.017,4.4,4.4,0,0,1-4.453-.007c-.063-.035-.063-.035-.135,0a4.338,4.338,0,0,1-4.423,0c-.074-.041-.074-.041-.153.006a4.241,4.241,0,0,1-3.526.4M29.818,84.53c-.006,1.085.027,1.967.053,2.669.011.307.022.584.027.833,0-.319-.016-.678-.03-1.081-.022-.659-.049-1.466-.051-2.421M12.812,83.292c-.048,1.126-.033,2.268-.018,3.379,0,.044,0,.088,0,.132.036-.906.069-2.059.016-3.511m14.791-.3a3.887,3.887,0,0,0,1.6-.106,4.626,4.626,0,0,1-1.6.106m-10.587-.52a4.021,4.021,0,0,0,2.753.478,4.017,4.017,0,0,1-2.752-.478h0m2.755.477h0m0,0h0m0,0h0m-3.288-.468a2.777,2.777,0,0,0-.464.19,4.13,4.13,0,0,1-.667.268,3.759,3.759,0,0,0,1.131-.458m4.84-.1a.468.468,0,0,1,.228.07l.062.034-.062-.034a.41.41,0,0,0-.467,0l-.039.021.039-.021a.494.494,0,0,1,.239-.074m4.354.074h0l-.014.007.014-.008h0m.364-.033.005,0h0l0,0m-.124-.024a.29.29,0,0,1,.115.02l.009,0a.269.269,0,0,0-.128-.024Z" transform="translate(-11.299 -72.936)" fill="#0a2440" stroke="rgba(10,36,64,0.22)" stroke-linejoin="bevel" stroke-width="1"/><path d="M7.07,12.889a3.065,3.065,0,0,1-3.045-2.512c-.177-1.731.684-3.431.985-5.111A1.433,1.433,0,0,1,6.628,4.009H21.091c1.4-.116,1.616,1.165,1.861,2.256.228,1.3.96,2.765.74,4.092a3.016,3.016,0,0,1-5.264,1.448c-1.769,1.441-3.075,1.442-4.569.006a2.984,2.984,0,0,1-4.575,0A2.948,2.948,0,0,1,7.07,12.889m6.771-1.582c1.494,1.668,2.91,1.6,4.7-.043a2.368,2.368,0,0,0,1.782,1.251,2.7,2.7,0,0,0,3.038-2.233c.178-1.291-.52-2.67-.738-3.932-.245-.9-.3-2.115-1.529-2H6.628a1.108,1.108,0,0,0-1.285,1C5.013,6.663,4.668,7.971,4.364,9.3a2.732,2.732,0,0,0,4.959,2.019,2.706,2.706,0,0,0,4.517-.014" transform="translate(-3.83 -3.83)" fill="#0a2440" stroke="rgba(10,36,64,0.22)" stroke-linejoin="bevel" stroke-width="1"/><path d="M15.852,91.85c-.911.112-1.907-.353-1.894-1.357.037-2.235-.106-4.465.055-6.668,3.056,1.056,3.141-.482,4.393-.186a3.85,3.85,0,0,0,3.926,0,.579.579,0,0,1,.632,0,3.865,3.865,0,0,0,3.959,0,.625.625,0,0,1,.543-.026,4.234,4.234,0,0,0,3.886.187c-.33,8.85,1.93,8.125-6.432,8.024V87H20.4v4.852c-.543,0-4.089,0-4.547,0M14.3,84.255c.361,8.173-1.947,7.242,5.759,7.248V86.652h5.209V91.5c7.569-.027,5.421,1.06,5.745-7.257a4.14,4.14,0,0,1-3.716-.331.34.34,0,0,0-.207.032,4.237,4.237,0,0,1-4.288-.006.247.247,0,0,0-.3,0,4.176,4.176,0,0,1-4.257,0,.262.262,0,0,0-.323.008,4.154,4.154,0,0,1-3.621.308" transform="translate(-12.626 -74.266)" fill="#0a2440" stroke="rgba(10,36,64,0.22)" stroke-linejoin="bevel" stroke-width="1"/></g></g></svg>