<svg xmlns="http://www.w3.org/2000/svg" width="16.026" height="21.013" viewBox="0 0 16.026 21.013"><g transform="translate(0.486 0.513)"><path d="M7.318,54.354c-4.863,0-6.942-3.058-7.267-5.92-.364-3.2,1.254-5.095,3.408-7.235a.468.468,0,0,1,.66,0,.463.463,0,0,1,0,.657C1.761,44.2.69,45.769.981,48.329c.279,2.463,2.091,5.094,6.337,5.094,3.988,0,6.244-2.427,6.71-4.833.388-2-.73-4.322-3.322-6.9a.463.463,0,0,1,0-.657.468.468,0,0,1,.661,0c2.865,2.85,4.037,5.38,3.58,7.734-.522,2.691-3.132,5.587-7.629,5.587" transform="translate(0 -34.354)" fill="#0a2440" stroke="rgba(10,36,64,0.4)" stroke-linecap="round" stroke-width="1"/><path d="M34.228,62.968a.473.473,0,0,1-.473-.473v-.313a2.319,2.319,0,0,1-2.062-2.164.473.473,0,0,1,.946,0,1.65,1.65,0,0,0,3.205,0c0-.271,0-.991-1.677-1.257-1.43-.227-2.284-.941-2.284-1.909a2.065,2.065,0,0,1,1.872-1.873v-.314a.473.473,0,0,1,.946,0v.309a2.071,2.071,0,0,1,1.9,1.878.473.473,0,1,1-.946,0c0-.525-.648-.969-1.413-.969s-1.413.444-1.413.969c0,.545.768.861,1.487.975,2.045.325,2.474,1.371,2.474,2.191A2.323,2.323,0,0,1,34.7,62.186v.309a.473.473,0,0,1-.473.473" transform="translate(-26.708 -45.749)" fill="#0a2440" stroke="rgba(10,36,64,0.4)" stroke-linecap="round" stroke-width="1"/><path d="M29.169.822a.459.459,0,0,0-.477-.1,3.628,3.628,0,0,1-3.181-.24,2.619,2.619,0,0,0-3.882,1.046.485.485,0,0,0,0,.374L23.34,6a.472.472,0,0,0,.2.227,4.735,4.735,0,0,0,2.177.552,3.81,3.81,0,0,0,2-.558.475.475,0,0,0,.207-.27L29.295,1.3a.48.48,0,0,0-.126-.48M27.093,5.5a3.376,3.376,0,0,1-2.968-.025L22.563,1.732a1.775,1.775,0,0,1,2.293-.582,4.087,4.087,0,0,0,3.315.686Z" transform="translate(-18.137 0)" fill="#0a2440" stroke="rgba(10,36,64,0.4)" stroke-linecap="round" stroke-width="1"/></g></svg>