<svg xmlns="http://www.w3.org/2000/svg" width="25.038" height="19.418" viewBox="0 0 25.038 19.418"><g transform="matrix(0.996, -0.087, 0.087, 0.996, 0.542, 2.512)"><g transform="translate(0 0)"><path d="M20.165,0,17.1.028,15.8,0H2.444A2.447,2.447,0,0,0,0,2.445v11.54a2.446,2.446,0,0,0,2.444,2.443H20.166a2.446,2.446,0,0,0,2.443-2.443V2.445A2.447,2.447,0,0,0,20.165,0m1.542,13.984a1.543,1.543,0,0,1-1.541,1.541H2.444A1.542,1.542,0,0,1,.9,13.985V2.445A1.542,1.542,0,0,1,2.444.9H20.166a1.542,1.542,0,0,1,1.541,1.54Z" transform="translate(0 -0.001)" fill="#0a2440" stroke="rgba(10,36,64,0.4)" stroke-width="1"/><path d="M49.282,38.38a.99.99,0,0,0-1.715,0L46.6,40.046l-2.942-5.1a.99.99,0,0,0-1.714,0l-4.154,7.195a.451.451,0,0,0,.391.677H51.065a.451.451,0,0,0,.391-.676ZM38.968,41.92,42.73,35.4a.087.087,0,0,1,.15,0l3.333,5.774a.47.47,0,0,0,.782,0l1.353-2.344a.082.082,0,0,1,.075-.044.079.079,0,0,1,.075.044l1.784,3.089Z" transform="translate(-33.32 -30.425)" fill="#0a2440" stroke="rgba(10,36,64,0.4)" stroke-width="1"/><path d="M129.352,37.711a1.628,1.628,0,1,0-1.628-1.628,1.629,1.629,0,0,0,1.628,1.628m0-2.353a.725.725,0,1,1-.726.725.726.726,0,0,1,.726-.725" transform="translate(-112.784 -30.425)" fill="#0a2440" stroke="rgba(10,36,64,0.4)" stroke-width="1"/></g></g></svg>