<svg xmlns="http://www.w3.org/2000/svg" xmlns:xlink="http://www.w3.org/1999/xlink" width="36" height="24" viewBox="0 0 36 24"><defs><filter id="a"><feOffset input="SourceAlpha"/><feGaussianBlur stdDeviation="1" result="b"/><feFlood flood-color="#0a2440" flood-opacity="0.788" result="c"/><feComposite operator="out" in="SourceGraphic" in2="b"/><feComposite operator="in" in="c"/><feComposite operator="in" in2="SourceGraphic"/></filter><filter id="d"><feOffset input="SourceAlpha"/><feGaussianBlur stdDeviation="1" result="e"/><feFlood flood-color="#0a2440" flood-opacity="0.788" result="f"/><feComposite operator="out" in="SourceGraphic" in2="e"/><feComposite operator="in" in="f"/><feComposite operator="in" in2="SourceGraphic"/></filter><filter id="g"><feOffset input="SourceAlpha"/><feGaussianBlur stdDeviation="1" result="h"/><feFlood flood-color="#0a2440" flood-opacity="0.788" result="i"/><feComposite operator="out" in="SourceGraphic" in2="h"/><feComposite operator="in" in="i"/><feComposite operator="in" in2="SourceGraphic"/></filter><filter id="j"><feOffset input="SourceAlpha"/><feGaussianBlur stdDeviation="1" result="k"/><feFlood flood-color="#0a2440" flood-opacity="0.788" result="l"/><feComposite operator="out" in="SourceGraphic" in2="k"/><feComposite operator="in" in="l"/><feComposite operator="in" in2="SourceGraphic"/></filter></defs><g transform="translate(0 0.378)"><g data-type="innerShadowGroup"><rect width="36" height="5" rx="2.5" transform="translate(0 -0.378)" fill="#ffc600"/><g transform="matrix(1, 0, 0, 1, 0, -0.38)" filter="url(#a)"><rect width="36" height="5" rx="2.5" transform="translate(0 0)" fill="#fff"/></g></g><g data-type="innerShadowGroup"><rect width="21" height="5" rx="2.5" transform="translate(0 8.622)" fill="#ffc600"/><g transform="matrix(1, 0, 0, 1, 0, -0.38)" filter="url(#d)"><rect width="21" height="5" rx="2.5" transform="translate(0 9)" fill="#fff"/></g></g><g data-type="innerShadowGroup"><rect width="16" height="5" rx="2.5" transform="translate(0 18.622)" fill="#ffc600"/><g transform="matrix(1, 0, 0, 1, 0, -0.38)" filter="url(#g)"><rect width="16" height="5" rx="2.5" transform="translate(0 19)" fill="#fff"/></g></g><g data-type="innerShadowGroup"><rect width="9" height="5" rx="2.5" transform="translate(22 8.622)" fill="#ffc600"/><g transform="matrix(1, 0, 0, 1, 0, -0.38)" filter="url(#j)"><rect width="9" height="5" rx="2.5" transform="translate(22 9)" fill="#fff"/></g></g></g></svg>