<svg xmlns="http://www.w3.org/2000/svg" width="11.343" height="11.343" viewBox="0 0 11.343 11.343">
  <g id="Grupo_10055" data-name="Grupo 10055" transform="translate(0.25 0.25)">
    <g id="Grupo_10060" data-name="Grupo 10060">
      <path id="Trazado_15123" data-name="Trazado 15123" d="M63.448,62.818a1.125,1.125,0,0,0-.957-.216c-.249.1-.408.491-.569.69a.238.238,0,0,1-.309.067,4.339,4.339,0,0,1-2.164-1.853.266.266,0,0,1,.034-.363,1.462,1.462,0,0,0,.393-.638,1.4,1.4,0,0,0-.176-.755,1.8,1.8,0,0,0-.558-.841.765.765,0,0,0-.83.123,1.687,1.687,0,0,0-.584,1.335,1.886,1.886,0,0,0,.053.424,3.515,3.515,0,0,0,.406.936,7.375,7.375,0,0,0,.425.645,6.542,6.542,0,0,0,1.84,1.709,5.572,5.572,0,0,0,1.147.545,2.549,2.549,0,0,0,1.336.211,1.618,1.618,0,0,0,1.211-.9.782.782,0,0,0,.056-.46C64.132,63.159,63.7,62.971,63.448,62.818Z" transform="translate(-55.569 -56.466)" fill="none" stroke="#1aff1a" stroke-linecap="round" stroke-linejoin="round" stroke-width="0.5"/>
      <path id="Trazado_15124" data-name="Trazado 15124" d="M49.548,57.149l.229.137a5.439,5.439,0,1,0-1.861-1.844l.141.231-.542,2.021Z" transform="translate(-47.124 -47.209)" fill="none" stroke="#1aff1a" stroke-linecap="round" stroke-linejoin="round" stroke-width="0.5"/>
      <path id="Trazado_15125" data-name="Trazado 15125" d="M63.448,62.818a1.125,1.125,0,0,0-.957-.216c-.249.1-.408.491-.569.69a.238.238,0,0,1-.309.067,4.339,4.339,0,0,1-2.164-1.853.266.266,0,0,1,.034-.363,1.462,1.462,0,0,0,.393-.638,1.4,1.4,0,0,0-.176-.755,1.8,1.8,0,0,0-.558-.841.765.765,0,0,0-.83.123,1.687,1.687,0,0,0-.584,1.335,1.886,1.886,0,0,0,.053.424,3.515,3.515,0,0,0,.406.936,7.375,7.375,0,0,0,.425.645,6.542,6.542,0,0,0,1.84,1.709,5.572,5.572,0,0,0,1.147.545,2.549,2.549,0,0,0,1.336.211,1.618,1.618,0,0,0,1.211-.9.782.782,0,0,0,.056-.46C64.132,63.159,63.7,62.971,63.448,62.818Z" transform="translate(-55.569 -56.466)" fill="none" stroke="#97ff97" stroke-linecap="round" stroke-linejoin="round" stroke-width="0.5"/>
      <path id="Trazado_15126" data-name="Trazado 15126" d="M49.548,57.149l.229.137a5.439,5.439,0,1,0-1.861-1.844l.141.231-.542,2.021Z" transform="translate(-47.124 -47.209)" fill="none" stroke="#97ff97" stroke-linecap="round" stroke-linejoin="round" stroke-width="0.5"/>
    </g>
  </g>
</svg>
